<?xml version="1.0" encoding="UTF-8"?>
<svg id="Layer_1" xmlns="http://www.w3.org/2000/svg" xmlns:xlink="http://www.w3.org/1999/xlink" version="1.1" viewBox="0 0 100 100">
  <!-- Generator: Adobe Illustrator 29.5.0, SVG Export Plug-In . SVG Version: 2.1.0 Build 137)  -->
  <defs>
    <style>
      .st0 {
        fill: #ffdf94;
      }

      .st1 {
        fill: url(#linear-gradient1);
      }

      .st2 {
        fill: url(#radial-gradient);
      }

      .st3 {
        fill: url(#linear-gradient);
      }

      .st4 {
        fill: #ffe9b5;
      }
    </style>
    <radialGradient id="radial-gradient" cx="33.5" cy="66.5" fx="33.5" fy="66.5" r="3.8" gradientTransform="translate(0 100) scale(1 -1)" gradientUnits="userSpaceOnUse">
      <stop offset="0" stop-color="#fff0f0"/>
      <stop offset=".5" stop-color="#fadada"/>
    </radialGradient>
    <linearGradient id="linear-gradient" x1="31.5" y1="41.6" x2="48.2" y2="41.6" gradientTransform="translate(4.1 97.3) scale(.8 -1)" gradientUnits="userSpaceOnUse">
      <stop offset=".3" stop-color="#ffde99"/>
      <stop offset=".4" stop-color="#ffe9bc" stop-opacity=".6"/>
      <stop offset=".4" stop-color="#fff5e0" stop-opacity=".3"/>
      <stop offset=".5" stop-color="#fffcf6" stop-opacity="0"/>
      <stop offset=".5" stop-color="#fff" stop-opacity="0"/>
      <stop offset=".5" stop-color="#fffbf3" stop-opacity=".1"/>
      <stop offset=".6" stop-color="#fff1d6" stop-opacity=".4"/>
      <stop offset=".7" stop-color="#ffe2a8" stop-opacity=".9"/>
      <stop offset=".7" stop-color="#fd9"/>
    </linearGradient>
    <linearGradient id="linear-gradient1" x1="70.4" y1="42.3" x2="87.1" y2="42.3" gradientTransform="translate(2 86.8) scale(.8 -1)" gradientUnits="userSpaceOnUse">
      <stop offset=".3" stop-color="#ffde99"/>
      <stop offset=".4" stop-color="#ffe9bc" stop-opacity=".6"/>
      <stop offset=".4" stop-color="#fff5e0" stop-opacity=".3"/>
      <stop offset=".5" stop-color="#fffcf6" stop-opacity="0"/>
      <stop offset=".5" stop-color="#fff" stop-opacity="0"/>
      <stop offset=".5" stop-color="#fffbf3" stop-opacity=".1"/>
      <stop offset=".6" stop-color="#fff1d6" stop-opacity=".4"/>
      <stop offset=".7" stop-color="#ffe2a8" stop-opacity=".9"/>
      <stop offset=".7" stop-color="#fd9"/>
    </linearGradient>
  </defs>
  <path class="st2" d="M33.5,29.7l.2,3c0,0,0,0,.1,0l1.6-1.4-1.3,1.7s0,.1,0,.1l3,.2-3,.2c0,0,0,0,0,.1l1.4,1.8-1.7-1.5s-.1,0-.1,0l-.2,4.8-.2-4.8c0,0,0,0-.1,0l-1.9,1.6,1.6-1.9s0-.1,0-.1l-3-.2,3-.2c0,0,0,0,0-.1l-1.3-1.7,1.6,1.4s.1,0,.1,0l.2-3h0Z"/>
  <rect class="st3" x="28.8" y="55.5" width="13.5" height=".3" rx=".1" ry=".1" transform="translate(-18 17) rotate(-21.6)"/>
  <rect class="st1" x="57.2" y="44.3" width="13.4" height=".3" rx=".1" ry=".1" transform="translate(-11.8 26.3) rotate(-21.3)"/>
  <circle class="st0" cx="28.6" cy="58.4" r=".3"/>
  <circle class="st4" cx="65.8" cy="68.6" r=".3"/>
</svg>