<?xml version="1.0" encoding="UTF-8"?>
<svg id="Layer_1" xmlns="http://www.w3.org/2000/svg" xmlns:xlink="http://www.w3.org/1999/xlink" version="1.1" viewBox="0 0 100 100">
  <!-- Generator: Adobe Illustrator 29.5.0, SVG Export Plug-In . SVG Version: 2.1.0 Build 137)  -->
  <defs>
    <style>
      .st0 {
        fill: url(#radial-gradient);
      }

      .st1 {
        fill: #dcd9ff;
      }

      .st2 {
        fill: url(#radial-gradient1);
      }
    </style>
    <radialGradient id="radial-gradient" cx="66" cy="62.4" fx="66" fy="62.4" r="2.2" gradientTransform="translate(0 100) scale(1 -1)" gradientUnits="userSpaceOnUse">
      <stop offset="0" stop-color="#f1e3ff"/>
      <stop offset=".8" stop-color="#d2aafa"/>
    </radialGradient>
    <radialGradient id="radial-gradient1" cx="39.8" cy="38.9" fx="39.8" fy="38.9" r="2" gradientTransform="translate(0 100) scale(1 -1)" gradientUnits="userSpaceOnUse">
      <stop offset="0" stop-color="#e3f9ff"/>
      <stop offset=".8" stop-color="#aae9fa"/>
    </radialGradient>
  </defs>
  <path class="st0" d="M66,35.4v1.6c.1.3.4.5.7.6h1.6c0,0-1.6.2-1.6.2-.3,0-.6.3-.6.6v1.6c0,0-.2-1.6-.2-1.6,0-.3-.3-.5-.6-.6h-1.6c0,0,1.6-.2,1.6-.2.3,0,.6-.3.6-.6v-1.6Z"/>
  <path class="st2" d="M39.8,59v1.4c.1.3.3.5.7.6h1.4c0,0-1.4.2-1.4.2-.3,0-.5.3-.6.6v1.4c0,0-.2-1.4-.2-1.4,0-.3-.3-.5-.6-.6h-1.4c0,0,1.4-.2,1.4-.2.3,0,.5-.3.6-.6v-1.4Z"/>
  <circle class="st1" cx="61.6" cy="36.8" r=".3"/>
</svg>