<?xml version="1.0" encoding="UTF-8"?>
<svg id="Layer_1" data-name="Layer 1" xmlns="http://www.w3.org/2000/svg" xmlns:xlink="http://www.w3.org/1999/xlink" viewBox="0 0 100 100">
  <defs>
    <style>
      .cls-1 {
        fill: none;
      }

      .cls-2 {
        fill: url(#linear-gradient-2);
      }

      .cls-3 {
        fill: url(#linear-gradient);
      }

      .cls-4 {
        clip-path: url(#clippath);
      }
    </style>
    <linearGradient id="linear-gradient" x1="37.69" y1="994.3" x2="70.1" y2="951.4" gradientTransform="translate(0 1024) scale(1 -1)" gradientUnits="userSpaceOnUse">
      <stop offset="0" stop-color="#98c7ff"/>
      <stop offset="0" stop-color="#c4b4fe"/>
      <stop offset=".3" stop-color="#ffd6ef"/>
      <stop offset=".5" stop-color="#dfebff"/>
      <stop offset=".6" stop-color="#ffedea"/>
      <stop offset=".9" stop-color="#98c7ff"/>
    </linearGradient>
    <clipPath id="clippath">
      <path class="cls-1" d="M63.41,34.92s1,8.66.75,9.83c0,0,0,.25-.62.25,0,0-.12.08-.54-1.37-.42-1.46-2.96-9.33-10.45-9,0,0-3.17-.29-6,2.46s-4.04,9.33-3.87,12.83c.17,3.46.21,15.49,10.45,15.2,10.29-.29,10.04-6.5,10.04-6.5,0,0,0-.21.21-.21s.25.21.25.21c0,0,.12,7.79-10.95,7.71-11.08-.08-16.95-6.54-16.87-16.16s6.66-16.49,16.29-16.49c0,0,3.54-.33,8.95,1.83,0,0,.5.25.54.04,0,0,1-1.54,1.12-1.46,0,0,.62-.17.75.79l-.04.04Z"/>
    </clipPath>
    <linearGradient id="linear-gradient-2" x1="35.75" y1="992.86" x2="68.15" y2="949.92" gradientTransform="translate(0 1024) scale(1 -1)" gradientUnits="userSpaceOnUse">
      <stop offset="0" stop-color="#98c7ff"/>
      <stop offset="0" stop-color="#d4b5ff"/>
      <stop offset=".3" stop-color="#ffe3f4"/>
      <stop offset=".4" stop-color="#f4edf9"/>
      <stop offset=".6" stop-color="#c2d8ff"/>
      <stop offset=".8" stop-color="#ffc2c4"/>
    </linearGradient>
  </defs>
  <path class="cls-3" d="M63.41,34.92s1,8.66.75,9.83c0,0,0,.25-.62.25,0,0-.12.08-.54-1.37s-2.96-9.33-10.45-9c0,0-3.17-.29-6,2.46-2.83,2.75-4.04,9.33-3.87,12.83.17,3.46.21,15.49,10.45,15.2,10.29-.29,10.04-6.5,10.04-6.5,0,0,0-.21.21-.21s.25.21.25.21c0,0,.12,7.79-10.95,7.71-11.08-.08-16.95-6.54-16.87-16.16.08-9.62,6.66-16.49,16.29-16.49,0,0,3.54-.33,8.95,1.83,0,0,.5.25.54.04,0,0,1-1.54,1.12-1.46,0,0,.62-.17.75.79h0l-.04.04Z"/>
  <g class="cls-4">
    <rect class="cls-2" x="35.55" y="33.46" width="28.91" height="33.11"/>
  </g>
</svg>