<?xml version="1.0" encoding="UTF-8"?>
<svg id="Layer_1" xmlns="http://www.w3.org/2000/svg" xmlns:xlink="http://www.w3.org/1999/xlink" version="1.1" viewBox="0 0 1024 1024">
  <!-- Generator: Adobe Illustrator 29.5.0, SVG Export Plug-In . SVG Version: 2.1.0 Build 137)  -->
  <defs>
    <style>
      .st0 {
        fill: none;
      }

      .st1 {
        fill: url(#linear-gradient2);
      }

      .st2 {
        fill: url(#linear-gradient1);
      }

      .st3 {
        fill: url(#radial-gradient);
      }

      .st4 {
        fill: url(#linear-gradient);
      }

      .st5 {
        isolation: isolate;
      }

      .st6 {
        display: none;
      }

      .st7 {
        clip-path: url(#clippath);
      }
    </style>
    <linearGradient id="linear-gradient" x1="239.5" y1="961" x2="956.2" y2="11.3" gradientTransform="translate(0 1024) scale(1 -1)" gradientUnits="userSpaceOnUse">
      <stop offset="0" stop-color="#98c7ff"/>
      <stop offset="0" stop-color="#c4b4fe"/>
      <stop offset=".3" stop-color="#ffd6ef"/>
      <stop offset=".5" stop-color="#dfebff"/>
      <stop offset=".6" stop-color="#ffedea"/>
      <stop offset=".9" stop-color="#98c7ff"/>
    </linearGradient>
    <clipPath id="clippath">
      <path class="st0" d="M809.1,178.2s22.3,191.4,16.5,217.6c0,0-.3,5.8-14.1,5.9,0,0-3,2.2-11.8-30.6s-65.8-206.6-231.7-198.8c0,0-70.4-6.3-132.9,54.1s-89.8,206.7-85.9,283.5c3.9,76.8,4.2,342.5,231.7,336.4,227.5-6.1,221.9-143.5,221.9-143.5,0,0,.4-4.7,4.7-4.7s5.1,4.7,5.1,4.7c0,0,2.4,172.3-242.3,170.5s-375-145-372.9-357.6,147.8-364.9,359.9-364.6c0,0,78.7-7.3,198.5,40.7,0,0,10.6,5.8,12.3,1,0,0,21.9-34.1,24.5-32.4,0,0,14.1-3.3,16.5,17.6v.2h0Z"/>
    </clipPath>
    <linearGradient id="linear-gradient1" x1="197.3" y1="929" x2="914" y2="-20.7" gradientTransform="translate(0 1024) scale(1 -1)" gradientUnits="userSpaceOnUse">
      <stop offset="0" stop-color="#98c7ff"/>
      <stop offset="0" stop-color="#d4b5ff"/>
      <stop offset=".3" stop-color="#ffe3f4"/>
      <stop offset=".4" stop-color="#f4edf9"/>
      <stop offset=".6" stop-color="#c2d8ff"/>
      <stop offset=".8" stop-color="#ffc2c4"/>
    </linearGradient>
    <linearGradient id="linear-gradient2" x1="373.1" y1="368.7" x2="660.6" y2="665.4" gradientUnits="userSpaceOnUse">
      <stop offset="0" stop-color="#fff"/>
      <stop offset=".5" stop-color="#fbe2b6"/>
      <stop offset="1" stop-color="#f9c670"/>
    </linearGradient>
    <radialGradient id="radial-gradient" cx="512" cy="512" fx="512" fy="512" r="459.2" gradientUnits="userSpaceOnUse">
      <stop offset="0" stop-color="#fffbd1"/>
      <stop offset=".2" stop-color="#ffe895"/>
      <stop offset=".5" stop-color="#fac080"/>
    </radialGradient>
  </defs>
  <g id="Layer_11" data-name="Layer_1">
    <g>
      <path class="st4" d="M809.1,178.2s22.3,191.4,16.5,217.6c0,0-.3,5.8-14.1,5.9,0,0-3,2.2-11.8-30.6s-65.8-206.6-231.7-198.8c0,0-70.4-6.3-132.9,54.1s-89.8,206.7-85.9,283.5c3.9,76.8,4.2,342.5,231.7,336.4,227.5-6.1,221.9-143.5,221.9-143.5,0,0,.4-4.7,4.7-4.7s5.1,4.7,5.1,4.7c0,0,2.4,172.3-242.3,170.5s-375-145-372.9-357.6,147.8-364.9,359.9-364.6c0,0,78.7-7.3,198.5,40.7,0,0,10.6,5.8,12.3,1,0,0,21.9-34.1,24.5-32.4,0,0,14.1-3.3,16.5,17.6v.2h0Z"/>
      <g class="st7">
        <rect class="st2" x="192.5" y="145.8" width="639.1" height="732.6"/>
      </g>
    </g>
    <path class="st1" d="M567.6,443.8s-52.2,46.8-107.7,1.5l-136.9-123.9,123.9,136.9c45.3,55.5-1.5,107.7-1.5,107.7l-120.4,133-1.6,1.6,133-120.4s52.2-46.8,107.7-1.5l136.9,123.9-123.9-136.9c-45.3-55.5,1.5-107.7,1.5-107.7l120.4-133,1.6-1.6-133,120.4h0Z"/>
    <path class="st3" d="M662.2,496.6s-120-6.6-132.5-128.9l-15.8-316.4-15.8,316.4c-12.5,122.3-132.5,128.9-132.5,128.9l-307.5,15.4h-3.8l307.5,15.4s120,6.6,132.5,128.9l15.8,316.4,15.8-316.4c12.5-122.3,132.5-128.9,132.5-128.9l307.5-15.4h3.8l-307.5-15.4Z"/>
  </g>
  <g id="Layer_2" class="st6">
    <image class="st5" width="3815" height="3839" transform="translate(155.5 150.7) scale(.2)" xlink:href="logo.png"/>
  </g>
</svg>