<?xml version="1.0" encoding="UTF-8"?>
<svg id="Layer_1" xmlns="http://www.w3.org/2000/svg" xmlns:xlink="http://www.w3.org/1999/xlink" version="1.1" viewBox="0 0 1024 1024">
  <!-- Generator: Adobe Illustrator 29.5.0, SVG Export Plug-In . SVG Version: 2.1.0 Build 137)  -->
  <defs>
    <style>
      .st0 {
        fill: url(#radial-gradient);
      }

      .st1 {
        fill: url(#linear-gradient);
      }

      .st2 {
        isolation: isolate;
      }

      .st3 {
        display: none;
      }
    </style>
    <linearGradient id="linear-gradient" x1="373.1" y1="368.7" x2="660.6" y2="665.4" gradientUnits="userSpaceOnUse">
      <stop offset="0" stop-color="#fff"/>
      <stop offset=".5" stop-color="#fbe2b6"/>
      <stop offset="1" stop-color="#f9c670"/>
    </linearGradient>
    <radialGradient id="radial-gradient" cx="512" cy="512" fx="512" fy="512" r="459.2" gradientUnits="userSpaceOnUse">
      <stop offset="0" stop-color="#fffbd1"/>
      <stop offset=".2" stop-color="#ffe895"/>
      <stop offset=".5" stop-color="#fac080"/>
    </radialGradient>
  </defs>
  <g id="Layer_11" data-name="Layer_1">
    <path class="st1" d="M567.6,443.8s-52.2,46.8-107.7,1.5l-136.9-123.9,123.9,136.9c45.3,55.5-1.5,107.7-1.5,107.7l-120.4,133-1.6,1.6,133-120.4s52.2-46.8,107.7-1.5l136.9,123.9-123.9-136.9c-45.3-55.5,1.5-107.7,1.5-107.7l120.4-133,1.6-1.6-133,120.4h0Z"/>
    <path class="st0" d="M662.2,496.6s-120-6.6-132.5-128.9l-15.8-316.4-15.8,316.4c-12.5,122.3-132.5,128.9-132.5,128.9l-307.5,15.4h-3.8l307.5,15.4s120,6.6,132.5,128.9l15.8,316.4,15.8-316.4c12.5-122.3,132.5-128.9,132.5-128.9l307.5-15.4h3.8l-307.5-15.4Z"/>
  </g>
  <g id="Layer_2" class="st3">
    <image class="st2" width="3815" height="3839" transform="translate(155.5 150.7) scale(.2)" xlink:href="logo.png"/>
  </g>
</svg>