<?xml version="1.0" encoding="UTF-8"?>
<svg id="Layer_1" data-name="Layer 1" xmlns="http://www.w3.org/2000/svg" xmlns:xlink="http://www.w3.org/1999/xlink" viewBox="0 0 100 100">
  <defs>
    <style>
      .cls-1 {
        fill: url(#radial-gradient);
      }

      .cls-2 {
        fill: url(#linear-gradient);
      }
    </style>
    <linearGradient id="linear-gradient" x1="43.66" y1="41.55" x2="56.66" y2="54.96" gradientTransform="translate(0 2)" gradientUnits="userSpaceOnUse">
      <stop offset="0" stop-color="#fff"/>
      <stop offset=".5" stop-color="#fbe2b6"/>
      <stop offset="1" stop-color="#f9c670"/>
    </linearGradient>
    <radialGradient id="radial-gradient" cx="50" cy="48" fx="50" fy="48" r="20.74" gradientTransform="translate(0 2)" gradientUnits="userSpaceOnUse">
      <stop offset="0" stop-color="#fffbd1"/>
      <stop offset=".2" stop-color="#ffe895"/>
      <stop offset=".5" stop-color="#fac080"/>
    </radialGradient>
  </defs>
  <path class="cls-2" d="M52.5,46.92s-2.37,2.12-4.87.08l-6.21-5.58,5.58,6.21c2.04,2.5-.08,4.87-.08,4.87l-5.46,6-.08.08,6-5.46s2.37-2.12,4.87-.08l6.21,5.58-5.58-6.21c-2.04-2.5.08-4.87.08-4.87l5.46-6,.08-.08-6,5.46h0Z"/>
  <path class="cls-1" d="M56.79,49.29s-5.41-.29-6-5.83l-.71-14.29-.71,14.29c-.58,5.54-6,5.83-6,5.83l-13.91.71h-.17l13.91.71s5.41.29,6,5.83l.71,14.29.71-14.29c.58-5.54,6-5.83,6-5.83l13.91-.71h.17s-13.91-.71-13.91-.71Z"/>
</svg>