<?xml version="1.0" encoding="UTF-8"?>
<svg id="Layer_1" xmlns="http://www.w3.org/2000/svg" xmlns:xlink="http://www.w3.org/1999/xlink" version="1.1" viewBox="0 0 1024 1024">
  <!-- Generator: Adobe Illustrator 29.5.0, SVG Export Plug-In . SVG Version: 2.1.0 Build 137)  -->
  <defs>
    <style>
      .st0 {
        fill: none;
      }

      .st1 {
        isolation: isolate;
      }

      .st2 {
        fill: #fff;
      }

      .st3 {
        display: none;
      }
    </style>
  </defs>
  <path class="st2" d="M662.2,496.6s-47.8-2.6-86.2-35.3c1.6-2.1,2.6-3.3,2.6-3.3l120.4-133,1.6-1.6-133,120.4s-1.8,1.7-5.2,4c-16.3-18.7-29.1-44.5-32.7-80.1l-9.5-189.8c28-7.4,47.8-5.6,47.8-5.6,165.9-7.8,222.9,166,231.7,198.8,8.8,32.8,11.8,30.6,11.8,30.6,13.8,0,14.1-5.9,14.1-5.9,5.8-26.2-16.5-217.6-16.5-217.6h0v-.2c-2.4-20.9-16.5-17.6-16.5-17.6-2.6-1.7-24.5,32.4-24.5,32.4-1.7,4.8-12.3-1-12.3-1-119.8-48-198.5-40.7-198.5-40.7-13,0-25.8.5-38.3,1.7l-5.1-101.5-5.1,102.5c-182.1,20.8-304.9,160.7-311.1,351.2l-139.5,7h-3.8l143.1,7.2c-.6,191,106.3,325.2,307.5,350l5.2,103.5,5.1-102.4c17.7,1.8,36,2.8,55.1,3,244.7,1.8,242.3-170.5,242.3-170.5,0,0-.8-4.7-5.1-4.7s-4.7,4.7-4.7,4.7c0,0,5.6,137.4-221.9,143.5-23.8.6-45.1-1.7-64.2-6.5l9.2-183.5c3.7-36.3,16.9-62.4,33.6-81.2,1.5,1.1,3.1,2.3,4.6,3.6l136.9,123.9-123.9-136.9c-1.2-1.4-2.3-2.9-3.3-4.3,38.1-31.4,84.6-34,84.6-34l307.5-15.4h0s3.8,0,3.8,0l-307.5-15.4ZM435.1,226.4c24.4-23.6,50.1-37,72.3-44.6l-9.3,185.9c-3.7,36.3-16.9,62.4-33.6,81.2-1.5-1.1-3.1-2.3-4.6-3.6l-92.5-83.7c14.2-53.6,36.6-105,67.7-135.2ZM365.6,368.5l81.3,89.8c1.2,1.4,2.3,2.9,3.3,4.3-38.1,31.4-84.6,34-84.6,34l-16.7.8c-.3-35.8,5.2-82.8,16.7-129ZM361.8,527.4s47.8,2.6,86.2,35.3c-1.6,2.1-2.6,3.3-2.6,3.3l-80.5,88.9c-11.1-48.9-13.6-96.6-15-128.1l11.8.6ZM366.5,661.6l89.9-81.4s1.8-1.7,5.2-4c16.3,18.7,29.1,44.5,32.7,80.1l9,179.6c-81.7-26.9-119.1-101.3-136.8-174.4Z"/>
  <g id="Layer_2" class="st3">
    <image class="st1" width="3815" height="3839" transform="translate(155.5 150.7) scale(.2)" xlink:href="logo.png"/>
  </g>
  <path class="st0" d="M520.2,177.9"/>
  <path class="st0" d="M507.4,181.8"/>
</svg>